<svg width="55" height="55" viewBox="0 0 55 55" fill="none" xmlns="http://www.w3.org/2000/svg">
<path d="M34.375 48.125V29.7917C34.375 29.1839 34.1336 28.601 33.7038 28.1712C33.274 27.7414 32.6911 27.5 32.0833 27.5H22.9167C22.3089 27.5 21.726 27.7414 21.2962 28.1712C20.8664 28.601 20.625 29.1839 20.625 29.7917V48.125M6.875 22.9167C6.87484 22.2499 7.02014 21.5912 7.30076 20.9864C7.58139 20.3816 7.99058 19.8454 8.49979 19.415L24.5415 5.665C25.3687 4.96583 26.4169 4.58223 27.5 4.58223C28.5831 4.58223 29.6313 4.96583 30.4585 5.665L46.5002 19.415C47.0094 19.8454 47.4186 20.3816 47.6992 20.9864C47.9799 21.5912 48.1252 22.2499 48.125 22.9167V43.5417C48.125 44.7572 47.6421 45.923 46.7826 46.7826C45.923 47.6421 44.7572 48.125 43.5417 48.125H11.4583C10.2428 48.125 9.07697 47.6421 8.21743 46.7826C7.35789 45.923 6.875 44.7572 6.875 43.5417V22.9167Z" stroke="#F9F9F9" stroke-width="2" stroke-linecap="round" stroke-linejoin="round"/>
</svg>
