<svg width="56" height="60" viewBox="0 0 56 60" fill="none" xmlns="http://www.w3.org/2000/svg">
<g filter="url(#filter0_d_18_382)">
<path d="M5 4.69792H9.58333L15.6792 33.1604C15.9028 34.2028 16.4828 35.1346 17.3193 35.7955C18.1559 36.4564 19.1967 36.805 20.2625 36.7812H42.675C43.7181 36.7796 44.7294 36.4221 45.5419 35.768C46.3544 35.1138 46.9195 34.202 47.1438 33.1833L50.925 16.1563H12.0354M20.9271 48.125C20.9271 49.3907 19.9011 50.4167 18.6354 50.4167C17.3698 50.4167 16.3437 49.3907 16.3437 48.125C16.3437 46.8593 17.3698 45.8333 18.6354 45.8333C19.9011 45.8333 20.9271 46.8593 20.9271 48.125ZM46.1354 48.125C46.1354 49.3907 45.1094 50.4167 43.8438 50.4167C42.5781 50.4167 41.5521 49.3907 41.5521 48.125C41.5521 46.8593 42.5781 45.8333 43.8438 45.8333C45.1094 45.8333 46.1354 46.8593 46.1354 48.125Z" stroke="#F9F9F9" stroke-width="2" stroke-linecap="round" stroke-linejoin="round"/>
</g>
<defs>
<filter id="filter0_d_18_382" x="-3.698" y="0" width="63" height="63" filterUnits="userSpaceOnUse" color-interpolation-filters="sRGB">
<feFlood flood-opacity="0" result="BackgroundImageFix"/>
<feColorMatrix in="SourceAlpha" type="matrix" values="0 0 0 0 0 0 0 0 0 0 0 0 0 0 0 0 0 0 127 0" result="hardAlpha"/>
<feOffset dy="4"/>
<feGaussianBlur stdDeviation="2"/>
<feComposite in2="hardAlpha" operator="out"/>
<feColorMatrix type="matrix" values="0 0 0 0 0 0 0 0 0 0 0 0 0 0 0 0 0 0 0.25 0"/>
<feBlend mode="normal" in2="BackgroundImageFix" result="effect1_dropShadow_18_382"/>
<feBlend mode="normal" in="SourceGraphic" in2="effect1_dropShadow_18_382" result="shape"/>
</filter>
</defs>
</svg>
