<svg width="55" height="55" viewBox="0 0 55 55" fill="none" xmlns="http://www.w3.org/2000/svg">
<path d="M34.3749 48.125V36.6667C34.3749 36.0589 34.1334 35.476 33.7036 35.0462C33.2739 34.6164 32.691 34.375 32.0832 34.375H22.9165C22.3087 34.375 21.7258 34.6164 21.2961 35.0462C20.8663 35.476 20.6249 36.0589 20.6249 36.6667V48.125M40.7319 23.6271C40.2542 23.1698 39.6184 22.9145 38.957 22.9145C38.2957 22.9145 37.6599 23.1698 37.1821 23.6271C36.1165 24.6435 34.7005 25.2105 33.2279 25.2105C31.7553 25.2105 30.3392 24.6435 29.2736 23.6271C28.796 23.1704 28.1606 22.9156 27.4999 22.9156C26.8391 22.9156 26.2037 23.1704 25.7261 23.6271C24.6604 24.6441 23.2438 25.2116 21.7707 25.2116C20.2975 25.2116 18.881 24.6441 17.8153 23.6271C17.3375 23.1698 16.7017 22.9145 16.0404 22.9145C15.379 22.9145 14.7432 23.1698 14.2655 23.6271C13.2362 24.6093 11.8782 25.1734 10.4559 25.2096C9.03355 25.2458 7.64866 24.7514 6.57076 23.8227C5.49285 22.8941 4.79905 21.5976 4.6244 20.1856C4.44975 18.7735 4.80674 17.3471 5.62589 16.1837L12.2465 6.59542C12.6666 5.97555 13.2321 5.46804 13.8937 5.11728C14.5553 4.76652 15.2927 4.58319 16.0415 4.58333H38.9582C39.7048 4.58305 40.4402 4.76516 41.1004 5.11383C41.7606 5.4625 42.3256 5.96717 42.7463 6.58396L49.3807 16.1906C50.2 17.3548 50.5566 18.7824 50.3808 20.1952C50.2051 21.6079 49.5096 22.9046 48.43 23.8326C47.3504 24.7606 45.964 25.2534 44.5409 25.215C43.1177 25.1766 41.7599 24.6097 40.7319 23.6248M9.16652 25.0937V43.5417C9.16652 44.7572 9.6494 45.923 10.5089 46.7826C11.3685 47.6421 12.5343 48.125 13.7499 48.125H41.2499C42.4654 48.125 43.6312 47.6421 44.4908 46.7826C45.3503 45.923 45.8332 44.7572 45.8332 43.5417V25.0937" stroke="#F9F9F9" stroke-width="2" stroke-linecap="round" stroke-linejoin="round"/>
</svg>
